<svg xmlns="http://www.w3.org/2000/svg" width="160" viewBox="0 0 160 31" height="31"><style>.st0{fill:#5DC4E9;} .st1{fill:#D2534C;} .st2{fill:#46B8AF;} .st3{fill:#52A7C7;} .st4{fill:#B64941;} .st5{fill:#3FA39C;} .st6{fill:#444444;}</style><path class="st0" d="M41.6 0L27.9 20.4l2.7 2L41.1 30c.2.2.5 0 .5-.2V0z"/><path class="st1" d="M41.6 0L13.7 20.4l2.2 3.3 4.8 7.2c.1.1.2.1.2 0L40.7 1.4l.9-1.4z"/><path class="st2" d="M41.6 0L12.8 9.4 0 0v29.8c0 .2.3.4.5.2L41.6 0z"/><path class="st3" d="M27.9 20.4l2.7 2L41.6.6V0z"/><path class="st4" d="M13.7 20.4l2.2 3.3L40.7 1.4l.9-1.4z"/><path class="st5" d="M0 0v13.5l12.8-4.1z"/><path class="st6" d="M55.5 22.2V7.9h3l4.2 9.5 3.8-9.5h3v14.3h-2.8v-8l-3.4 8.1h-1l-3.8-8.1v8.1h-3zM73.5 10.7c-.6 0-1-.2-1.3-.5-.3-.3-.4-.7-.4-1 0-.4.1-.7.4-1 .3-.3.7-.5 1.3-.5s1 .2 1.3.5c.3.3.4.7.4 1 0 .4-.1.7-.4 1-.3.4-.8.5-1.3.5zm-1.4 11.5V11.9h2.8v10.3h-2.8zM77.2 22.2V11.9h2.5l.1.9c.4-.4.8-.7 1.2-.9.4-.2.8-.2 1.2-.2.2 0 .5 0 .8.1.3.1.5.1.8.2l-.5 2.4c-.3-.1-.6-.2-.8-.3-.2-.1-.5-.1-.7-.1-.4 0-.8.1-1.1.3-.3.2-.6.4-.8.6v7.2h-2.7zM90.2 22.2l-.1-.8c-.3.3-.7.6-1.1.7-.5.2-1 .3-1.5.3s-.9-.1-1.3-.2-.8-.4-1.1-.6c-.3-.3-.6-.6-.8-1-.2-.4-.3-.9-.3-1.4 0-.5.1-1 .3-1.4.2-.4.5-.7.9-1 .4-.3.8-.5 1.2-.7.5-.2 1-.3 1.5-.4.4-.1.7-.1 1.2-.2.4 0 .8-.1 1.1-.1v-.3c0-.4-.1-.7-.4-1-.3-.3-.6-.4-1-.4-.2 0-.5.1-.9.2s-.7.4-1.1.7l-1.9-1.3.9-.9c.3-.2.7-.4 1.1-.5.4-.1.7-.2 1.1-.3.4 0 .7-.1 1-.1.6 0 1.1.1 1.6.2s.9.4 1.3.7c.4.3.6.7.8 1.2.2.5.3 1.1.3 1.8V22h-2.8zm-.2-4.8c-.3 0-.6 0-.9.1-.3 0-.6.1-.9.1-.6.1-1 .3-1.3.6s-.4.6-.4.9c0 .3.1.6.4.8.3.2.6.3 1.1.3.4 0 .7-.1 1-.2.3-.1.6-.3.9-.5v-2.1zM103.9 19.7c-.4.9-1 1.6-1.8 2.1-.7.4-1.6.7-2.6.7-.7 0-1.3-.1-1.9-.3-.6-.2-1.1-.6-1.6-1s-.8-1-1.1-1.7c-.3-.7-.4-1.4-.4-2.3 0-.9.1-1.7.4-2.4.3-.7.6-1.3 1.1-1.7.4-.5 1-.8 1.6-1 .6-.2 1.2-.3 1.8-.3.6 0 1.2.1 1.7.3s.9.4 1.3.7c.4.3.7.6.9 1 .2.4.4.7.5 1.1l-2.2 1.1c-.2-.7-.5-1.2-.9-1.4-.4-.3-.8-.4-1.2-.4-.3 0-.6.1-.8.2-.3.1-.5.3-.7.6-.2.3-.4.6-.5 1-.1.4-.2.9-.2 1.4 0 1 .2 1.7.7 2.3.4.5 1 .8 1.7.8.5 0 1-.1 1.3-.4.3-.3.6-.7.9-1.2l2 .8zM105.1 22.2V7.9h2.8v14.3h-2.8zM112.4 17.7c.1.9.3 1.5.8 1.9.5.4 1 .6 1.6.6.5 0 .9-.1 1.3-.3.4-.2.8-.6 1.2-1.2l2.1 1.3c-.6.9-1.3 1.5-2 1.9-.8.4-1.7.5-2.7.5-.7 0-1.3-.1-1.9-.3-.6-.2-1.2-.5-1.6-1-.5-.4-.8-1-1.1-1.7-.3-.7-.4-1.5-.4-2.4 0-.9.1-1.6.4-2.3.3-.7.6-1.2 1.1-1.7.5-.5 1-.8 1.6-1 .6-.2 1.3-.4 1.9-.4 1.4 0 2.6.5 3.5 1.5.9 1 1.3 2.5 1.4 4.6h-7.2zm4.2-1.9c-.1-.7-.3-1.2-.7-1.5-.4-.3-.8-.5-1.3-.5-.2 0-.5 0-.7.1-.2.1-.5.2-.7.4-.2.2-.4.4-.5.7-.1.3-.2.5-.3.9h4.2zM121.4 22.2V7.9h3.7c.6 0 1.1 0 1.7.1.6.1 1.2.3 1.7.5s1 .6 1.4.9c.4.4.8.8 1.1 1.4.3.5.5 1.1.7 1.8.2.7.3 1.4.3 2.2 0 1-.1 1.9-.3 2.7-.2.8-.5 1.5-1 2.1-.4.6-.9 1.1-1.4 1.5-.6.4-1.2.7-1.8.9-.3.1-.7.2-1.2.2-.4 0-.9.1-1.2.1h-3.7zm1.7-1.5h1.8c.3 0 .7 0 1.1-.1.4 0 .8-.1 1.1-.2.4-.2.8-.4 1.2-.7.4-.3.7-.7 1-1.1.3-.4.5-1 .7-1.6.2-.6.2-1.3.2-2.1 0-1.2-.2-2.2-.6-3-.4-.8-.9-1.3-1.6-1.8-.4-.3-.9-.5-1.5-.6-.6-.1-1.1-.2-1.6-.2h-1.8v11.4zM135.1 17c0 1.3.3 2.3.9 3 .6.7 1.4 1.1 2.5 1.1.6 0 1.2-.2 1.6-.5.4-.3.8-.7 1.1-1.2l1.1.7c-.4.6-.9 1.2-1.4 1.6-.6.4-1.4.6-2.4.6-.8 0-1.5-.1-2.1-.4-.6-.2-1.1-.6-1.6-1-.4-.4-.8-1-1-1.7-.2-.7-.4-1.4-.4-2.3 0-.8.1-1.5.3-2.2.2-.6.5-1.2.9-1.7s.9-.8 1.4-1.1c.6-.2 1.2-.4 1.9-.4.8 0 1.4.1 2 .4.6.3 1 .6 1.4 1.1.4.5.6 1 .8 1.7.2.6.3 1.4.3 2.1h-7.3zm5.5-1.3c0-.4-.1-.8-.3-1.2-.2-.3-.4-.6-.6-.8-.2-.2-.5-.4-.8-.5-.3-.1-.6-.2-.9-.2-.7 0-1.3.2-1.8.6-.5.4-.8 1.1-1 2h5.4zM146.6 22.2L142.8 12h1.8l3 8.3 3.1-8.3h1.7l-3.8 10.2h-2zM153.9 19.7c.2.5.6.8.9 1.1.4.2.9.4 1.5.4 1.4 0 2.1-.5 2.1-1.5 0-.3 0-.6-.1-.8-.1-.2-.2-.4-.4-.6-.2-.2-.5-.3-.8-.5-.3-.1-.7-.3-1.2-.5s-.9-.4-1.3-.5c-.4-.2-.6-.4-.9-.6-.2-.2-.4-.5-.5-.8-.1-.3-.2-.6-.2-1 0-.8.3-1.5.9-1.9.6-.5 1.4-.7 2.4-.7.8 0 1.5.1 2.1.4.6.3 1 .7 1.4 1.2l-1.2.9c-.3-.3-.6-.6-1-.9-.4-.2-.8-.3-1.3-.3-.6 0-1 .1-1.3.4-.3.2-.4.5-.4.9 0 .2 0 .4.1.6.1.2.2.3.4.4.2.1.5.3.8.4.3.1.7.3 1.2.5.9.3 1.7.7 2.1 1.2.5.5.7 1.2.7 2 0 .5-.1.9-.3 1.3-.2.4-.4.7-.8 1-.3.3-.7.5-1.1.6-.4.1-.9.2-1.5.2-1 0-1.8-.2-2.4-.6-.6-.4-1-.8-1.4-1.4l1.5-.9z"/></svg>