<svg fill="#FFFFFF" version="1.1" id="Capa_1" xmlns="http://www.w3.org/2000/svg" xmlns:xlink="http://www.w3.org/1999/xlink" x="0px" y="0px"
	 viewBox="0 0 222 50" style="enable-background:new 0 0 222 50;" xml:space="preserve" width="222" height="50">
<g>
	<path d="M0,38.6V0.6h11.9c1.9,0,3.7,0.1,5.4,0.4C19,1.2,20.5,1.7,22,2.4c1.9,0.9,3.4,2.3,4.3,4.1c0.9,1.8,1.4,3.7,1.4,5.8
		c0,1.1-0.2,2.3-0.5,3.4c-0.3,1.2-0.7,2.2-1.3,3.2c-0.6,1-1.3,1.9-2.1,2.7c-0.8,0.8-1.8,1.4-2.8,1.9c-1.3,0.5-2.7,0.9-4,1.1
		c-1.4,0.2-2.7,0.3-4.2,0.3H7.5v13.7H0z M7.5,18.4h4.3c1.1,0,2.1-0.1,3-0.2c0.9-0.1,1.7-0.3,2.3-0.6c1.1-0.5,1.9-1.2,2.3-2
		c0.5-0.9,0.7-1.8,0.7-2.8c0-1.1-0.3-2-0.8-3c-0.5-0.9-1.3-1.6-2.4-1.9c-0.6-0.2-1.3-0.4-2-0.5c-0.7-0.1-1.6-0.2-2.8-0.2H7.5V18.4z"
		/>
	<path d="M45.3,38.6l-0.3-2c-0.8,0.8-1.8,1.5-3,2c-1.2,0.5-2.6,0.7-4.1,0.7c-1.2,0-2.4-0.2-3.6-0.6c-1.2-0.4-2.2-1-3-1.7
		c-0.9-0.7-1.6-1.6-2.1-2.7c-0.5-1.1-0.8-2.3-0.8-3.7c0-1.4,0.3-2.6,0.9-3.6c0.6-1,1.3-1.9,2.3-2.6c0.9-0.7,2-1.3,3.3-1.8
		c1.2-0.5,2.5-0.8,3.9-1c0.9-0.2,2-0.3,3.1-0.4c1.1-0.1,2.1-0.2,2.8-0.3v-0.9c0-1.1-0.4-2-1.1-2.7c-0.8-0.7-1.6-1-2.7-1
		c-0.6,0-1.5,0.2-2.4,0.5c-1,0.3-1.9,1-2.8,1.9l-5.1-3.5c0.7-0.9,1.5-1.7,2.5-2.3c0.9-0.6,1.9-1.1,2.8-1.4c1-0.3,1.9-0.6,2.9-0.7
		c0.9-0.1,1.8-0.2,2.6-0.2c1.6,0,3.1,0.2,4.4,0.6c1.3,0.4,2.5,1,3.4,1.9c1,0.9,1.7,1.9,2.2,3.2c0.5,1.3,0.8,2.9,0.8,4.7v17.6H45.3z
		 M44.7,25.8c-0.8,0-1.6,0.1-2.4,0.2c-0.9,0.1-1.7,0.2-2.4,0.4c-1.6,0.3-2.7,0.8-3.3,1.6c-0.6,0.7-0.9,1.5-0.9,2.4
		c0,0.9,0.3,1.6,1,2.2c0.7,0.6,1.7,0.8,3,0.8c0.9,0,1.9-0.2,2.8-0.6c0.9-0.4,1.7-0.9,2.3-1.4V25.8z"/>
	<path d="M58.2,38.6V11.2H65l0.3,2.4c1-1.1,2.1-1.9,3.1-2.3c1-0.4,2.1-0.7,3.3-0.7c0.6,0,1.3,0.1,2,0.2c0.7,0.1,1.5,0.4,2.2,0.6
		l-1.3,6.4c-0.8-0.3-1.5-0.5-2.1-0.7c-0.7-0.2-1.3-0.3-2-0.3c-1.1,0-2,0.2-2.9,0.7c-0.9,0.5-1.5,1.1-2,1.7v19.2H58.2z"/>
	<path d="M92.8,38.6l-0.3-2c-0.8,0.8-1.8,1.5-3,2c-1.2,0.5-2.6,0.7-4.1,0.7c-1.2,0-2.4-0.2-3.6-0.6c-1.2-0.4-2.2-1-3-1.7
		s-1.6-1.6-2.1-2.7c-0.5-1.1-0.8-2.3-0.8-3.7c0-1.4,0.3-2.6,0.9-3.6c0.6-1,1.3-1.9,2.3-2.6c0.9-0.7,2-1.3,3.3-1.8
		c1.2-0.5,2.5-0.8,3.9-1c0.9-0.2,2-0.3,3.1-0.4c1.1-0.1,2.1-0.2,2.8-0.3v-0.9c0-1.1-0.4-2-1.1-2.7c-0.8-0.7-1.6-1-2.7-1
		c-0.6,0-1.5,0.2-2.4,0.5c-1,0.3-1.9,1-2.8,1.9L78,15.1c0.7-0.9,1.5-1.7,2.5-2.3c0.9-0.6,1.9-1.1,2.8-1.4c1-0.3,1.9-0.6,2.9-0.7
		c0.9-0.1,1.8-0.2,2.6-0.2c1.6,0,3.1,0.2,4.4,0.6c1.3,0.4,2.5,1,3.4,1.9c1,0.9,1.7,1.9,2.2,3.2c0.5,1.3,0.8,2.9,0.8,4.7v17.6H92.8z
		 M92.2,25.8c-0.8,0-1.6,0.1-2.4,0.2c-0.9,0.1-1.7,0.2-2.4,0.4c-1.6,0.3-2.7,0.8-3.3,1.6c-0.6,0.7-0.9,1.5-0.9,2.4
		c0,0.9,0.3,1.6,1,2.2c0.7,0.6,1.7,0.8,3,0.8c0.9,0,1.9-0.2,2.8-0.6c0.9-0.4,1.7-0.9,2.3-1.4V25.8z"/>
	<path d="M123.3,38.6l-0.3-2.1c-0.7,0.7-1.6,1.4-2.7,1.9c-1.1,0.5-2.4,0.8-3.9,0.8c-2,0-3.7-0.4-5.3-1.2c-1.5-0.8-2.8-1.9-3.9-3.2
		c-1-1.3-1.8-2.9-2.4-4.6c-0.5-1.7-0.8-3.6-0.8-5.5c0-1.8,0.3-3.5,0.9-5.2c0.6-1.7,1.4-3.2,2.6-4.6c1.1-1.3,2.6-2.4,4.3-3.2
		c1.7-0.8,3.7-1.2,6-1.2c1.6,0,3.2,0.3,4.9,0.8V0.6h7.4v37.9H123.3z M122.6,17.2c-1.4-0.5-2.7-0.8-4-0.8c-1.3,0-2.3,0.2-3.3,0.7
		c-0.9,0.5-1.7,1.1-2.3,1.8s-1.1,1.6-1.4,2.6s-0.5,2-0.5,3c0,1.1,0.1,2.2,0.4,3.3c0.3,1,0.7,2,1.2,2.7s1.2,1.4,2,1.9
		c0.8,0.5,1.8,0.7,2.9,0.7c0.9,0,1.8-0.2,2.8-0.7c0.9-0.5,1.6-1,2-1.7V17.2z"/>
	<path d="M140,8c-1.5,0-2.6-0.4-3.3-1.3c-0.7-0.8-1.1-1.8-1.1-2.8c0-1,0.4-1.9,1.1-2.7c0.7-0.8,1.8-1.3,3.3-1.3
		c1.5,0,2.6,0.4,3.3,1.3c0.7,0.8,1.1,1.7,1.1,2.7c0,1-0.4,2-1.1,2.8C142.6,7.6,141.5,8,140,8z M136.3,38.6V11.2h7.4v27.4H136.3z"/>
	<path d="M171.5,14.6c0.7,0.8,1.3,1.7,1.7,2.8c0.4,1.1,0.6,2.1,0.6,3.2c0,1.7-0.4,3.2-1.1,4.5c-0.7,1.3-1.6,2.3-2.8,3.2
		s-2.5,1.5-4,1.9c-1.5,0.4-3.1,0.6-4.7,0.6c-0.7,0-1.4,0-2.1-0.1c-0.7-0.1-1.3-0.2-1.8-0.3c-0.2,0.1-0.4,0.3-0.6,0.6
		c-0.2,0.3-0.3,0.5-0.3,0.7c0,0.3,0.1,0.5,0.3,0.7c0.2,0.2,0.6,0.4,1.1,0.5c0.5,0.2,1.3,0.3,2.3,0.4c1,0.1,2.3,0.2,3.9,0.2
		c2,0.1,3.7,0.3,5.2,0.5s2.8,0.7,3.8,1.4c1,0.6,1.8,1.4,2.3,2.4c0.5,1,0.8,2.2,0.8,3.7c0,1.6-0.4,3-1.2,4.1c-0.8,1.1-1.8,2-3.1,2.6
		c-1.3,0.7-2.8,1.1-4.5,1.4c-1.7,0.3-3.4,0.4-5.1,0.4c-1.7,0-3.5-0.1-5.1-0.4c-1.7-0.3-3.2-0.7-4.5-1.3c-1.3-0.6-2.4-1.5-3.2-2.5
		c-0.8-1-1.2-2.4-1.2-4c0-1.3,0.3-2.4,0.9-3.2c0.6-0.8,1.3-1.5,2.3-2c-0.5-0.4-1-1-1.4-1.6c-0.4-0.7-0.6-1.4-0.6-2.3
		c0-1,0.3-1.9,0.9-2.6c0.6-0.8,1.3-1.4,2.3-2c-1.1-0.9-2-1.9-2.6-3.2c-0.7-1.3-1-2.7-1-4.2c0-1.7,0.4-3.2,1.1-4.5
		c0.7-1.3,1.6-2.3,2.8-3.2c1.2-0.9,2.5-1.5,4-1.9c1.5-0.4,3-0.6,4.6-0.6c1.1,0,2.1,0.1,3,0.3c0.9,0.2,1.8,0.5,2.8,0.9l4.4-4.6
		l4.2,3.4L171.5,14.6z M158.6,38.9c-0.8-0.1-1.6-0.2-2.3-0.3c-0.3,0.2-0.7,0.6-1,1c-0.3,0.4-0.5,1-0.5,1.6c0,2.4,2.6,3.5,7.7,3.5
		c2.3,0,4.1-0.2,5.3-0.7c1.3-0.5,1.9-1.1,1.9-2c0-0.5-0.1-0.9-0.3-1.3c-0.2-0.3-0.6-0.6-1.2-0.9c-0.6-0.2-1.5-0.4-2.6-0.5
		c-1.1-0.1-2.7-0.2-4.6-0.3C160.1,39.1,159.4,39,158.6,38.9z M155.8,20.7c0,1.5,0.5,2.6,1.5,3.4s2.3,1.2,3.9,1.2
		c1.6,0,2.9-0.4,4-1.2s1.6-1.9,1.6-3.3c0-1.4-0.5-2.6-1.6-3.5c-1-0.9-2.4-1.3-4-1.3c-1.6,0-2.9,0.4-3.9,1.3
		C156.3,18.1,155.8,19.3,155.8,20.7z"/>
	<path d="M179.1,38.6V11.2h6.8l0.3,2c0.9-0.8,2-1.4,3.3-1.9c1.3-0.5,2.6-0.8,4-0.8c1.3,0,2.7,0.2,4,0.6c1.4,0.4,2.6,1.1,3.8,2.1
		c1.3-0.8,2.8-1.4,4.3-1.9c1.6-0.5,3.2-0.8,5.1-0.8c2.2,0,4,0.3,5.4,0.8c1.4,0.5,2.6,1.3,3.5,2.3s1.5,2.2,1.9,3.6
		c0.4,1.4,0.6,3.1,0.6,4.9v16.4h-7.4V22.5c0-1.8-0.4-3.3-1.1-4.4s-2-1.7-4-1.7c-0.6,0-1.1,0.1-1.7,0.3c-0.6,0.2-1.1,0.4-1.6,0.6
		c-0.5,0.2-1,0.5-1.4,0.7c-0.4,0.2-0.7,0.5-1,0.7c0.1,0.5,0.2,1,0.2,1.5c0.1,0.6,0.1,1.2,0.1,1.9v16.6h-7.4V22.5
		c0-0.8-0.1-1.6-0.2-2.4c-0.2-0.7-0.4-1.4-0.7-1.9c-0.3-0.6-0.8-1-1.4-1.3c-0.6-0.3-1.3-0.5-2.2-0.5c-1.1,0-2.2,0.3-3.2,0.9
		c-1,0.6-1.9,1.2-2.5,1.8v19.5H179.1z"/>
</g>
</svg>
