<svg fill="#FFF" xmlns="http://www.w3.org/2000/svg" width="140" viewBox="0 0 222 50" height="50">
    <path d="M0 38.6V.6h11.9c1.9 0 3.7.1 5.4.4 1.7.2 3.2.7 4.7 1.4 1.9.9 3.4 2.3 4.3 4.1.9 1.8 1.4 3.7 1.4 5.8 0 1.1-.2 2.3-.5 3.4-.3 1.2-.7 2.2-1.3 3.2-.6 1-1.3 1.9-2.1 2.7-.8.8-1.8 1.4-2.8 1.9-1.3.5-2.7.9-4 1.1-1.4.2-2.7.3-4.2.3H7.5v13.7H0zm7.5-20.2h4.3c1.1 0 2.1-.1 3-.2.9-.1 1.7-.3 2.3-.6 1.1-.5 1.9-1.2 2.3-2 .5-.9.7-1.8.7-2.8 0-1.1-.3-2-.8-3-.5-.9-1.3-1.6-2.4-1.9-.6-.2-1.3-.4-2-.5-.7-.1-1.6-.2-2.8-.2H7.5v11.2zM45.3 38.6l-.3-2c-.8.8-1.8 1.5-3 2s-2.6.7-4.1.7c-1.2 0-2.4-.2-3.6-.6-1.2-.4-2.2-1-3-1.7-.9-.7-1.6-1.6-2.1-2.7s-.8-2.3-.8-3.7c0-1.4.3-2.6.9-3.6.6-1 1.3-1.9 2.3-2.6.9-.7 2-1.3 3.3-1.8 1.2-.5 2.5-.8 3.9-1 .9-.2 2-.3 3.1-.4 1.1-.1 2.1-.2 2.8-.3V20c0-1.1-.4-2-1.1-2.7-.8-.7-1.6-1-2.7-1-.6 0-1.5.2-2.4.5-1 .3-1.9 1-2.8 1.9l-5.1-3.5c.7-.9 1.5-1.7 2.5-2.3.9-.6 1.9-1.1 2.8-1.4 1-.3 1.9-.6 2.9-.7.9-.1 1.8-.2 2.6-.2 1.6 0 3.1.2 4.4.6 1.3.4 2.5 1 3.4 1.9 1 .9 1.7 1.9 2.2 3.2.5 1.3.8 2.9.8 4.7v17.6h-6.9zm-.6-12.8c-.8 0-1.6.1-2.4.2-.9.1-1.7.2-2.4.4-1.6.3-2.7.8-3.3 1.6-.6.7-.9 1.5-.9 2.4 0 .9.3 1.6 1 2.2.7.6 1.7.8 3 .8.9 0 1.9-.2 2.8-.6.9-.4 1.7-.9 2.3-1.4v-5.6zM58.2 38.6V11.2H65l.3 2.4c1-1.1 2.1-1.9 3.1-2.3 1-.4 2.1-.7 3.3-.7.6 0 1.3.1 2 .2s1.5.4 2.2.6l-1.3 6.4c-.8-.3-1.5-.5-2.1-.7-.7-.2-1.3-.3-2-.3-1.1 0-2 .2-2.9.7-.9.5-1.5 1.1-2 1.7v19.2h-7.4zM92.8 38.6l-.3-2c-.8.8-1.8 1.5-3 2s-2.6.7-4.1.7c-1.2 0-2.4-.2-3.6-.6-1.2-.4-2.2-1-3-1.7s-1.6-1.6-2.1-2.7-.8-2.3-.8-3.7c0-1.4.3-2.6.9-3.6.6-1 1.3-1.9 2.3-2.6.9-.7 2-1.3 3.3-1.8 1.2-.5 2.5-.8 3.9-1 .9-.2 2-.3 3.1-.4 1.1-.1 2.1-.2 2.8-.3V20c0-1.1-.4-2-1.1-2.7-.8-.7-1.6-1-2.7-1-.6 0-1.5.2-2.4.5-1 .3-1.9 1-2.8 1.9L78 15.1c.7-.9 1.5-1.7 2.5-2.3.9-.6 1.9-1.1 2.8-1.4 1-.3 1.9-.6 2.9-.7.9-.1 1.8-.2 2.6-.2 1.6 0 3.1.2 4.4.6 1.3.4 2.5 1 3.4 1.9 1 .9 1.7 1.9 2.2 3.2.5 1.3.8 2.9.8 4.7v17.6h-6.8zm-.6-12.8c-.8 0-1.6.1-2.4.2-.9.1-1.7.2-2.4.4-1.6.3-2.7.8-3.3 1.6-.6.7-.9 1.5-.9 2.4 0 .9.3 1.6 1 2.2.7.6 1.7.8 3 .8.9 0 1.9-.2 2.8-.6.9-.4 1.7-.9 2.3-1.4v-5.6zM123.3 38.6l-.3-2.1c-.7.7-1.6 1.4-2.7 1.9s-2.4.8-3.9.8c-2 0-3.7-.4-5.3-1.2-1.5-.8-2.8-1.9-3.9-3.2-1-1.3-1.8-2.9-2.4-4.6-.5-1.7-.8-3.6-.8-5.5 0-1.8.3-3.5.9-5.2.6-1.7 1.4-3.2 2.6-4.6 1.1-1.3 2.6-2.4 4.3-3.2 1.7-.8 3.7-1.2 6-1.2 1.6 0 3.2.3 4.9.8V.6h7.4v37.9h-6.8zm-.7-21.4c-1.4-.5-2.7-.8-4-.8-1.3 0-2.3.2-3.3.7-.9.5-1.7 1.1-2.3 1.8s-1.1 1.6-1.4 2.6-.5 2-.5 3c0 1.1.1 2.2.4 3.3.3 1 .7 2 1.2 2.7s1.2 1.4 2 1.9 1.8.7 2.9.7c.9 0 1.8-.2 2.8-.7.9-.5 1.6-1 2-1.7V17.2zM140 8c-1.5 0-2.6-.4-3.3-1.3-.7-.8-1.1-1.8-1.1-2.8 0-1 .4-1.9 1.1-2.7.7-.8 1.8-1.3 3.3-1.3 1.5 0 2.6.4 3.3 1.3.7.8 1.1 1.7 1.1 2.7 0 1-.4 2-1.1 2.8-.7.9-1.8 1.3-3.3 1.3zm-3.7 30.6V11.2h7.4v27.4h-7.4zM171.5 14.6c.7.8 1.3 1.7 1.7 2.8.4 1.1.6 2.1.6 3.2 0 1.7-.4 3.2-1.1 4.5-.7 1.3-1.6 2.3-2.8 3.2s-2.5 1.5-4 1.9c-1.5.4-3.1.6-4.7.6-.7 0-1.4 0-2.1-.1-.7-.1-1.3-.2-1.8-.3-.2.1-.4.3-.6.6-.2.3-.3.5-.3.7 0 .3.1.5.3.7.2.2.6.4 1.1.5.5.2 1.3.3 2.3.4 1 .1 2.3.2 3.9.2 2 .1 3.7.3 5.2.5s2.8.7 3.8 1.4c1 .6 1.8 1.4 2.3 2.4.5 1 .8 2.2.8 3.7 0 1.6-.4 3-1.2 4.1-.8 1.1-1.8 2-3.1 2.6-1.3.7-2.8 1.1-4.5 1.4-1.7.3-3.4.4-5.1.4-1.7 0-3.5-.1-5.1-.4-1.7-.3-3.2-.7-4.5-1.3-1.3-.6-2.4-1.5-3.2-2.5-.8-1-1.2-2.4-1.2-4 0-1.3.3-2.4.9-3.2.6-.8 1.3-1.5 2.3-2-.5-.4-1-1-1.4-1.6-.4-.7-.6-1.4-.6-2.3 0-1 .3-1.9.9-2.6.6-.8 1.3-1.4 2.3-2-1.1-.9-2-1.9-2.6-3.2-.7-1.3-1-2.7-1-4.2 0-1.7.4-3.2 1.1-4.5.7-1.3 1.6-2.3 2.8-3.2 1.2-.9 2.5-1.5 4-1.9 1.5-.4 3-.6 4.6-.6 1.1 0 2.1.1 3 .3.9.2 1.8.5 2.8.9l4.4-4.6 4.2 3.4-4.4 4.1zm-12.9 24.3c-.8-.1-1.6-.2-2.3-.3-.3.2-.7.6-1 1-.3.4-.5 1-.5 1.6 0 2.4 2.6 3.5 7.7 3.5 2.3 0 4.1-.2 5.3-.7 1.3-.5 1.9-1.1 1.9-2 0-.5-.1-.9-.3-1.3-.2-.3-.6-.6-1.2-.9-.6-.2-1.5-.4-2.6-.5-1.1-.1-2.7-.2-4.6-.3-.9.1-1.6 0-2.4-.1zm-2.8-18.2c0 1.5.5 2.6 1.5 3.4s2.3 1.2 3.9 1.2 2.9-.4 4-1.2 1.6-1.9 1.6-3.3-.5-2.6-1.6-3.5c-1-.9-2.4-1.3-4-1.3s-2.9.4-3.9 1.3c-1 .8-1.5 2-1.5 3.4zM179.1 38.6V11.2h6.8l.3 2c.9-.8 2-1.4 3.3-1.9 1.3-.5 2.6-.8 4-.8 1.3 0 2.7.2 4 .6 1.4.4 2.6 1.1 3.8 2.1 1.3-.8 2.8-1.4 4.3-1.9 1.6-.5 3.2-.8 5.1-.8 2.2 0 4 .3 5.4.8 1.4.5 2.6 1.3 3.5 2.3s1.5 2.2 1.9 3.6c.4 1.4.6 3.1.6 4.9v16.4h-7.4v-16c0-1.8-.4-3.3-1.1-4.4s-2-1.7-4-1.7c-.6 0-1.1.1-1.7.3-.6.2-1.1.4-1.6.6-.5.2-1 .5-1.4.7-.4.2-.7.5-1 .7.1.5.2 1 .2 1.5.1.6.1 1.2.1 1.9v16.6h-7.4V22.5c0-.8-.1-1.6-.2-2.4-.2-.7-.4-1.4-.7-1.9-.3-.6-.8-1-1.4-1.3-.6-.3-1.3-.5-2.2-.5-1.1 0-2.2.3-3.2.9-1 .6-1.9 1.2-2.5 1.8v19.5h-7.5z"/>
</svg>